<?xml version="1.0" encoding="utf-8"?>
<!-- Generator: Adobe Illustrator 18.0.0, SVG Export Plug-In . SVG Version: 6.00 Build 0)  -->
<!DOCTYPE svg PUBLIC "-//W3C//DTD SVG 1.1//EN" "http://www.w3.org/Graphics/SVG/1.1/DTD/svg11.dtd">
<svg version="1.1" id="Capa_1" xmlns="http://www.w3.org/2000/svg" xmlns:xlink="http://www.w3.org/1999/xlink" x="0px" y="0px"
	 viewBox="0 0 595.3 841.9" enable-background="new 0 0 595.3 841.9" xml:space="preserve">
<text transform="matrix(1 0 0 1 84.3823 418.1391)" fill="#C1A331" font-family="'HelveticaNeueLT-Extended'" font-size="7.4881" letter-spacing="1">p r o p e r t i e s</text>
<g>
	<g>
		<g>
			<path fill-rule="evenodd" clip-rule="evenodd" fill="#20DA2A" d="M132.1,372.2c-4.3-0.1-7.3,1-11.2,1.2c0-13.8,0-27.6,0-41.4
				c2.9-2.9,7.2-4.5,10.8-6.8C132.7,340.1,131.8,356.7,132.1,372.2z"/>
			<path fill-rule="evenodd" clip-rule="evenodd" fill="#5D73CF" d="M133.9,325.3c18.4,8.8,35.3,18.9,53,28.2
				c-8.8,1.9-13.6-2.2-19.8-5.6c-11.2-6-22.6-12.5-33.2-18.3C133.9,328.2,133.9,326.7,133.9,325.3z"/>
			<path fill-rule="evenodd" clip-rule="evenodd" fill="#20DA2A" d="M119,332.1c1,13.1,0.2,28,0.4,41.8c-4.3,0.1-7.4,1.1-11.7,1.2
				c-0.1-12.4,0-24.7,0.4-36.6C111.8,336.3,115.9,334.6,119,332.1z"/>
			<path fill-rule="evenodd" clip-rule="evenodd" fill="#5D73CF" d="M133.9,332.5c13.5,6.1,25.5,13.5,38.2,20.3
				c-0.3,5.2,0.6,11.4-0.4,15.9c-14.1-0.4-25.5,1.6-37.3,3.2C133.4,358.6,134.1,347.1,133.9,332.5z M146.5,355.1c1.9,0,3.9,0,5.8,0
				c0-1.6,0-3.2,0-4.8c-1.9,0-3.9,0-5.8,0C146.5,351.9,146.5,353.5,146.5,355.1z M153.6,355.1c1.9,0,3.9,0,5.8,0c0-1.6,0-3.2,0-4.8
				c-1.9,0-3.9,0-5.8,0C153.6,351.9,153.6,353.5,153.6,355.1z M146.5,360.7c1.9,0,3.9,0,5.8,0c0-1.6,0-3.2,0-4.8c-1.9,0-3.9,0-5.8,0
				C146.5,357.5,146.5,359.1,146.5,360.7z M153.6,360.7c1.9,0,3.9,0,5.8,0c0-1.6,0-3.2,0-4.8c-1.9,0-3.9,0-5.8,0
				C153.6,357.5,153.6,359.1,153.6,360.7z"/>
			<path fill-rule="evenodd" clip-rule="evenodd" fill="#20DA2A" d="M106,339.6c1,11,0.2,23.7,0.4,35.4c-3.7,0.4-7.5,0.8-11.7,0.8
				c-0.3-10.5,0.8-19.7,0.4-30.2C98.8,343.5,102.5,341.7,106,339.6z"/>
			<path fill-rule="evenodd" clip-rule="evenodd" fill="#FFFFFF" d="M146.5,350.4c1.9,0,3.9,0,5.8,0c0,1.6,0,3.2,0,4.8
				c-1.9,0-3.9,0-5.8,0C146.5,353.5,146.5,351.9,146.5,350.4z"/>
			<path fill-rule="evenodd" clip-rule="evenodd" fill="#FFFFFF" d="M153.6,350.4c1.9,0,3.9,0,5.8,0c0,1.6,0,3.2,0,4.8
				c-1.9,0-3.9,0-5.8,0C153.6,353.5,153.6,351.9,153.6,350.4z"/>
			<path fill-rule="evenodd" clip-rule="evenodd" fill="#FFFFFF" d="M146.5,355.9c1.9,0,3.9,0,5.8,0c0,1.6,0,3.2,0,4.8
				c-1.9,0-3.9,0-5.8,0C146.5,359.1,146.5,357.5,146.5,355.9z"/>
			<path fill-rule="evenodd" clip-rule="evenodd" fill="#FFFFFF" d="M153.6,355.9c1.9,0,3.9,0,5.8,0c0,1.6,0,3.2,0,4.8
				c-1.9,0-3.9,0-5.8,0C153.6,359.1,153.6,357.5,153.6,355.9z"/>
			<path fill-rule="evenodd" clip-rule="evenodd" fill="#B8A07C" d="M62.9,371.5c0.1,0.2,0.2,0.4,0.3,0.7c0.2,0.3,0.4,0.7,0.4,1
				c34.7,32.1,108.8-19.8,144,11.3C180.6,347.8,101.8,392.4,62.9,371.5z"/>
			<path fill-rule="evenodd" clip-rule="evenodd" fill="none" d="M58.8,307.4c-0.5,0.1-0.5,0.6-0.4,1.2v61.1
				c0.5-0.3,1.1-0.3,1.7-0.2c0.6,0.1,1,0.5,1.3,0.9c0.1,0.1,0.1,0.1,0.2,0.2c0.5,0.1,1,0.5,1.3,0.9c38.9,20.9,117.7-23.8,144.7,13
				c-35.2-31.1-109.3,20.8-144-11.3c0,0.3,0,0.6-0.1,0.9c0.1,0.2,0.1,0.4,0.1,0.6c0,0.4-0.1,0.8-0.2,1.1c-0.3,0.8-1.1,1.5-2.2,1.5
				c-1,0-1.9-0.6-2.2-1.5c-0.1-0.2-0.1-0.5-0.2-0.7c-0.1-0.1-0.1-0.2-0.2-0.4c-0.1-0.3-0.2-0.7-0.3-1v29.1h151.9v-95.5H58.8z
				 M106.5,375c-3.7,0.4-7.5,0.8-11.7,0.8c-0.3-10.5,0.8-19.7,0.4-30.2c3.5-2.1,7.3-3.9,10.8-6C107.1,350.6,106.2,363.3,106.5,375z
				 M119.5,373.8c-4.3,0.1-7.4,1.1-11.7,1.2c-0.1-12.4,0-24.7,0.4-36.6c3.5-2.2,7.6-3.9,10.8-6.4C120.1,345.2,119.2,360,119.5,373.8
				z M132.1,372.2c-4.3-0.1-7.3,1-11.2,1.2v-41.4c2.9-2.9,7.2-4.5,10.8-6.8C132.7,340.1,131.8,356.7,132.1,372.2z M171.6,368.7
				c-14.1-0.4-25.5,1.6-37.3,3.2c-0.9-13.2-0.2-24.7-0.4-39.4c13.5,6.1,25.5,13.5,38.2,20.3C171.8,357.9,172.6,364.1,171.6,368.7z
				 M167.1,348c-11.2-6-22.6-12.5-33.2-18.3v-4.4c18.4,8.8,35.3,18.9,53,28.2C178.1,355.5,173.3,351.3,167.1,348z"/>
		</g>
	</g>
	<rect x="105.9" y="338" fill="none" width="3" height="38"/>
	<rect x="119.1" y="331" fill="none" width="3" height="43.3"/>
	<rect x="131.5" y="325.3" fill="none" width="4.2" height="47.7"/>
	<rect x="92.5" y="338.2" fill="none" width="3" height="38"/>
	<rect x="170.6" y="352.1" fill="#FFFFFF" width="3" height="16.6"/>
	<polygon fill="none" points="88,349.4 85.8,346.2 132,321.7 134.1,324.8 	"/>
</g>
<text transform="matrix(1 0 0 1 23.6918 404.5102)" fill="#C1A331" font-family="'BaskOldFace'" font-size="22.4644" letter-spacing="9">Whitehall</text>
</svg>
